# SSTK version 0.8.0
# 3
mtllib original-3.mtl
o mesh3/mesh3-geometry#mesh3-geometry
v 0.044820 0.727368 0.002256
v 0.045760 0.727368 -0.018891
v 0.046682 0.727368 -0.008256
v 0.042117 0.727368 -0.028926
v 0.046682 0.905814 -0.008256
v 0.044820 0.905814 0.002256
v 0.040300 0.727368 0.011928
v 0.045760 0.905814 -0.018891
v 0.040300 0.905814 0.011928
v 0.036000 0.727368 -0.037675
v 0.042117 0.905814 -0.028926
v -0.035025 0.905814 -0.011888
v 0.039837 0.905814 -0.155784
v 0.046134 0.905814 -0.003086
v 0.033432 0.905814 0.020100
v 0.033432 0.727368 0.020100
v 0.058567 0.905814 0.081393
v 0.044930 0.905814 0.001971
v 0.040343 0.905814 0.011837
v 0.027828 0.727368 -0.044544
v 0.036000 0.905814 -0.037675
v 0.071277 0.905814 -0.142220
v -0.047013 0.905814 0.423186
v 0.040156 0.905814 0.012099
v 0.043089 0.905814 0.006832
v 0.024682 0.727368 0.026216
v 0.027828 0.905814 -0.044544
v 0.005912 0.905814 -0.160431
v 0.087488 0.905814 0.063062
v 0.071277 0.995037 -0.142220
v 0.060798 0.905814 0.423186
v 0.033648 0.905814 0.019843
v 0.040641 0.905814 0.011418
v 0.024682 0.905814 0.026216
v 0.018156 0.727368 -0.049063
v 0.018156 0.905814 -0.049063
v 0.005912 0.995037 -0.160431
v 0.097934 0.905814 -0.120729
v 0.087488 0.995037 0.063062
v 0.039837 0.995037 -0.155784
v 0.060798 0.957860 0.460532
v 0.032870 0.905814 0.020493
v 0.037627 0.905814 0.015653
v 0.014647 0.727368 0.029860
v 0.007644 0.905814 -0.050925
v -0.028017 0.995037 -0.155822
v 0.110442 0.905814 0.037654
v 0.058567 0.995037 0.081393
v 0.097934 0.995037 -0.120729
v -0.047013 0.957860 0.460532
v 0.025254 0.905814 0.025817
v 0.034096 0.905814 0.019468
v 0.014647 0.905814 0.029860
v 0.007644 0.727368 -0.050925
v -0.002991 0.905814 -0.050003
v 0.033097 0.995037 0.091926
v -0.028017 0.905814 -0.155822
v 0.005769 0.995037 0.095509
v 0.117861 0.905814 -0.092884
v 0.110442 0.995037 0.037654
v 0.117861 0.995037 -0.092884
v -0.047013 0.995037 0.081334
v 0.023458 0.905814 0.026661
v 0.030107 0.905814 0.022801
v 0.004012 0.905814 0.030782
v 0.004012 0.727368 0.030782
v -0.013026 0.905814 -0.046360
v -0.059472 0.995037 -0.142293
v -0.021555 0.995037 0.091896
v 0.125752 0.905814 0.007026
v -0.047013 0.905814 0.081334
v 0.015756 0.905814 0.029457
v 0.025724 0.905814 0.025596
v 0.005769 0.905814 0.030629
v -0.002991 0.727368 -0.050003
v -0.021775 0.905814 -0.040244
v -0.059472 0.905814 -0.142293
v 0.129602 0.905814 -0.060719
v 0.129602 0.995037 -0.060719
v 0.125752 0.995037 0.007026
v -0.075914 0.905814 0.062970
v 0.012641 0.905814 0.030034
v 0.021019 0.905814 0.027807
v -0.006500 0.727368 0.028920
v -0.013026 0.727368 -0.046360
v -0.028644 0.905814 -0.032072
v -0.086154 0.995037 -0.120833
v -0.075914 0.995037 0.062970
v 0.132298 0.905814 -0.026584
v -0.034913 0.905814 -0.006540
v 0.016071 0.905814 0.029399
v -0.006500 0.905814 0.028920
v 0.010959 0.905814 0.030345
v -0.001305 0.905814 0.030195
v -0.021775 0.727368 -0.040244
v -0.028644 0.727368 -0.032072
v -0.033163 0.905814 -0.022400
v -0.086154 0.905814 -0.120833
v 0.132298 0.995037 -0.026584
v -0.098839 0.995037 0.037537
v -0.034103 0.905814 -0.001253
v -0.016172 0.727368 0.024400
v -0.016172 0.905814 0.024400
v -0.033163 0.727368 -0.022400
v -0.035025 0.727368 -0.011888
v -0.106112 0.905814 -0.093010
v -0.098839 0.905814 0.037537
v -0.032611 0.905814 0.003884
v -0.034103 0.727368 -0.001253
v -0.030460 0.905814 0.008782
v -0.011484 0.905814 0.026977
v -0.024344 0.905814 0.017532
v -0.024344 0.727368 0.017532
v -0.030460 0.727368 0.008782
v -0.106112 0.995037 -0.093010
v -0.114114 0.995037 0.006891
v -0.020483 0.905814 0.021234
v -0.117889 0.905814 -0.060857
v -0.114114 0.905814 0.006891
v -0.027689 0.905814 0.013357
v -0.117889 0.995037 -0.060857
v -0.120623 0.995037 -0.026726
v -0.120623 0.905814 -0.026726
vn 0.8513415357031419 -0.45029275442345723 0.2691728532009718
vn 0.871869809780261 -0.45029290175758196 -0.19255995798833214
vn 0.8919997579055005 -0.4502928777876026 0.0396579892365653
vn 0.792323253066899 -0.4502931438229776 -0.4116551314820526
vn -0.8919997579055005 0.4502928777876026 -0.0396579892365653
vn -0.871869809780261 0.45029290175758196 0.19255995798833214
vn -0.8513415357031419 0.45029275442345723 -0.2691728532009718
vn -0.792323253066899 0.4502931438229776 0.4116551314820526
vn 0.7526659052615722 -0.4502929433214058 0.4803439395388719
vn -0.7526659052615722 0.4502929433214058 -0.4803439395388719
vn 0.6587810442638291 -0.45029303025541473 -0.602697040495517
vn -0.6587810442638291 0.45029303025541473 0.602697040495517
vn 0 1 0
vn 0.23961606039763178 0.4505181135576101 -0.8600102167742024
vn 0 -1 0
vn 0.6026970404955169 -0.450293030255415 0.658781044263829
vn -0.6026970404955169 0.450293030255415 -0.658781044263829
vn 0.8891847049601166 0.3523628830826673 0.29187490315315046
vn 0.480343939538872 -0.4502929433214055 -0.7526659052615723
vn -0.480343939538872 0.4502929433214055 0.7526659052615723
vn 0.46122017398957826 0.45051816995238037 -0.7644012883608853
vn -0.7384079886754059 0.30792799527746223 0.5999449907989438
vn 0.41165513148205246 -0.45029314382297775 0.7923232530668988
vn -0.41165513148205246 0.45029314382297775 -0.7923232530668988
vn 0.000500000091346775 0.45051808230673296 -0.8927671631027725
vn 0.5754883618933805 0.450518283306484 0.6825294292056953
vn -0.46122017398957826 -0.45051816995238037 0.7644012883608853
vn -0.23961606039763178 -0.4505181135576101 0.8600102167742024
vn 0.7397362166362211 0.3119560913582264 0.5962161746055097
vn 0.2691728532009719 -0.450292754423457 -0.851341535703142
vn -0.2691728532009719 0.450292754423457 0.851341535703142
vn -0.000500000091346775 -0.45051808230673296 0.8927671631027725
vn 0.6491173715088024 0.45051825784473787 -0.6129273507961981
vn -0.5754883618933805 -0.450518283306484 -0.6825294292056953
vn -0.8891847049601166 -0.3523628830826673 -0.29187490315315046
vn -0.6491173715088024 -0.45051825784473787 0.6129273507961981
vn -0.7397362166362211 -0.3119560913582264 -0.5962161746055097
vn 0.7384079886754059 -0.30792799527746223 -0.5999449907989438
vn -0.8962500109163253 -0.18684200227573555 -0.4022760048997219
vn 0.8962500109163253 0.18684200227573555 0.4022760048997219
vn 0.246643998034124 -0.9675739922879516 -0.054472999565823174
vn -0.246643998034124 0.9675739922879516 0.054472999565823174
vn 0.2386530047710316 -0.45051800900653105 0.8602780171982481
vn 0.7372799630165635 0.45051797740111765 0.5034399747464448
vn -0.5715900357778221 -0.7428130464952698 -0.34858802181934523
vn -0.7372799630165635 -0.45051797740111765 -0.5034399747464448
vn 0.7074420085154796 -0.29163100351036225 -0.6437990077494089
vn 0.0396579892365654 -0.45029287778760235 -0.8919997579055006
vn -0.0396579892365654 0.45029287778760235 0.8919997579055006
vn 0.7895750508367914 0.4505180290066043 -0.41665902682659217
vn -0.7895750508367914 -0.4505180290066043 0.41665902682659217
vn 0.5714519207404811 -0.7421428970659003 -0.350237951422525
vn -0.25233802804977057 -0.96757410755506 -0.011219001247098853
vn 0.25233802804977057 0.96757410755506 0.011219001247098853
vn -0.2386530047710316 0.45051800900653105 -0.8602780171982481
vn 0.4603641156183906 -0.4505181131456112 0.7649171921055348
vn 0.8451887813458872 0.4505178834490112 0.28755792560748034
vn -0.8451887813458872 -0.4505178834490112 -0.28755792560748034
vn 0.7612736858372594 -0.495522795507447 -0.4182338274030907
vn -0.19255995798833203 -0.45029290175758185 -0.8718698097802611
vn 0.19255995798833203 0.45029290175758185 0.8718698097802611
vn 0.8723280822134364 0.45051804245952554 -0.18994001790108767
vn -0.8723280822134364 -0.45051804245952554 0.18994001790108767
vn 0.5762530640248884 -0.4505180500550358 -0.6818840757610756
vn -0.7612736858372594 0.495522795507447 0.4182338274030907
vn -0.2691728532009719 -0.45029275442345734 0.8513415357031417
vn 0.2691728532009719 0.45029275442345734 -0.8513415357031417
vn -0.4603641156183906 0.4505181131456112 -0.7649171921055348
vn 0.6484302707391474 -0.4505181881048984 0.613654256219115
vn 0.8913288706837885 0.45051793463773643 0.05065999265012224
vn -0.8913288706837885 -0.45051793463773643 -0.05065999265012224
vn -0.5762530640248884 0.4505180500550358 0.6818840757610756
vn -0.41165513148205246 -0.4502931438229774 -0.792323253066899
vn 0.41165513148205246 0.4502931438229774 0.792323253066899
vn 0.7378431497936113 -0.45051809146216476 -0.5026141020384638
vn -0.6484302707391474 0.4505181881048984 -0.613654256219115
vn -0.480343939538872 -0.45029294332140585 0.7526659052615721
vn 0.480343939538872 0.45029294332140585 -0.7526659052615721
vn -0.6026970404955169 -0.4502930302554147 -0.6587810442638292
vn 0.6026970404955169 0.4502930302554147 0.6587810442638292
vn 0.7891072692004398 -0.4505181536922671 0.4175441424433295
vn -0.7378431497936113 0.45051809146216476 0.5026141020384638
vn -0.6587810442638291 -0.45029303025541495 0.6026970404955168
vn 0.6587810442638291 0.45029303025541495 -0.6026970404955168
vn -0.7526659052615722 -0.45029294332140557 -0.4803439395388721
vn 0.7526659052615722 0.45029294332140557 0.4803439395388721
vn -0.7923232530668989 -0.4502931438229777 0.41165513148205235
vn -0.8513415357031419 -0.4502927544234571 -0.269172853200972
vn 0.8513415357031419 0.4502927544234571 0.269172853200972
vn 0.7923232530668989 0.4502931438229777 -0.41165513148205235
vn -0.7891072692004398 0.4505181536922671 -0.4175441424433295
vn 0.8455102140219138 -0.4505181140385383 -0.2866110725491536
vn -0.871869809780261 -0.4502929017575821 0.19255995798833192
vn 0.871869809780261 0.4502929017575821 -0.19255995798833192
vn -0.8919997579055005 -0.4502928777876026 -0.039657989236565494
vn 0.8919997579055005 0.4502928777876026 0.039657989236565494
vn 0.8721146841754979 -0.45051783685107694 0.19091793086166114
vn -0.8455102140219138 0.4505181140385383 0.2866110725491536
vn -0.8721146841754979 0.45051783685107694 -0.19091793086166114
vn 0.8913850439140852 -0.4505180221947709 -0.04966100244654944
vn -0.8913850439140852 0.4505180221947709 0.04966100244654944
vn 0.999013166638407 0 0.0444150074085571
vn -0.999013166638407 0 -0.0444150074085571
vn 0.953476933883528 0 0.3014659790955961
vn -0.953476933883528 0 -0.3014659790955961
vn 0.9764680716395593 0 -0.21566201582226005
vn -0.9764680716395593 0 0.21566201582226005
vn 0.8429632460567926 0 0.5379711570311138
vn -0.8429632460567926 0 -0.5379711570311138
vn 0.8873782481784337 0 -0.4610421289424365
vn -0.8873782481784337 0 0.4610421289424365
vn 0.6750029918209887 0 0.7378149910598957
vn -0.6750029918209887 0 -0.7378149910598957
vn 0.7378149910598957 0 -0.6750029918209887
vn -0.7378149910598957 0 0.6750029918209887
vn 0.5379711570311138 0 -0.8429632460567926
vn -0.5379711570311138 0 0.8429632460567926
vn 0.4610421289424365 0 0.8873782481784337
vn -0.4610421289424365 0 -0.8873782481784337
vn 0.3014659790955961 0 -0.953476933883528
vn -0.3014659790955961 0 0.953476933883528
vn 0.5715900357778221 0.7428130464952698 0.34858802181934523
vn -0.7074420085154796 0.29163100351036225 0.6437990077494089
vn 0.0444150074085571 0 -0.999013166638407
vn -0.0444150074085571 0 0.999013166638407
vn -0.5714519207404811 0.7421428970659003 0.350237951422525
vn -0.21566201582226005 0 -0.9764680716395593
vn 0.21566201582226005 0 0.9764680716395593
vn -0.08636198476833809 0 -0.9962638242889649
vn 0.08636198476833809 0 0.9962638242889649
usemtl material_0_0
f 1//1 2//2 3//3
f 2//2 1//1 4//4
f 3//5 2//6 1//7
f 4//8 1//7 2//6
f 4//4 1//1 7//9
f 7//10 1//7 4//8
f 4//4 7//9 10//11
f 10//12 7//10 4//8
f 8//13 12//13 5//13
f 5//13 13//14 8//13
f 6//13 14//13 5//13
f 5//15 14//15 6//15
f 12//13 6//13 5//13
f 10//11 7//9 16//16
f 16//17 7//10 10//12
f 12//13 8//13 11//13
f 8//13 13//14 11//13
f 17//18 13//14 5//13
f 14//13 6//13 18//13
f 18//15 6//15 14//15
f 14//13 17//18 5//13
f 6//13 12//13 19//13
f 10//11 16//16 20//19
f 20//20 16//17 10//12
f 12//13 11//13 21//13
f 11//13 13//14 21//13
f 17//18 22//21 13//14
f 23//22 18//13 6//13
f 23//22 14//13 18//13
f 23//22 17//18 14//13
f 19//13 12//13 24//13
f 19//13 25//13 6//13
f 20//19 16//16 26//23
f 26//24 16//17 20//20
f 12//13 21//13 27//13
f 21//13 13//14 28//25
f 29//26 22//21 17//18
f 22//27 30//27 13//28
f 23//22 6//13 25//13
f 17//18 23//22 31//29
f 24//13 12//13 32//13
f 24//13 9//13 19//13
f 25//13 19//13 33//13
f 20//19 26//23 35//30
f 35//31 26//24 20//20
f 21//13 28//25 27//13
f 12//13 27//13 36//13
f 28//32 13//28 37//32
f 29//26 38//33 22//21
f 29//34 17//35 39//34
f 40//28 13//28 30//27
f 22//27 38//36 30//27
f 23//22 25//13 33//13
f 31//37 23//38 41//39
f 41//40 31//29 17//18
f 17//35 31//37 41//39
f 32//13 12//13 42//13
f 32//13 43//13 24//13
f 23//22 9//13 24//13
f 23//22 19//13 9//13
f 23//22 33//13 19//13
f 35//30 26//23 44//41
f 44//42 26//24 35//31
f 27//13 28//25 36//13
f 12//13 36//13 45//13
f 40//28 37//32 13//28
f 37//32 46//43 28//32
f 47//44 38//33 29//26
f 48//45 39//34 17//35
f 29//34 39//34 47//46
f 40//28 30//27 48//45
f 49//36 30//27 38//36
f 50//47 41//39 23//38
f 48//45 17//35 41//39
f 42//13 12//13 51//13
f 42//13 15//13 32//13
f 43//13 32//13 52//13
f 23//22 24//13 43//13
f 35//30 44//41 54//48
f 54//49 44//42 35//31
f 36//13 28//25 45//13
f 12//13 45//13 55//13
f 37//32 40//28 56//15
f 57//43 28//32 46//43
f 46//43 37//32 58//15
f 47//44 59//50 38//33
f 48//45 30//27 39//34
f 60//46 47//46 39//34
f 56//15 40//28 48//45
f 30//27 49//36 39//34
f 49//36 38//36 61//51
f 41//39 50//47 48//45
f 50//47 23//38 62//52
f 51//13 12//13 63//13
f 51//13 64//13 42//13
f 23//22 15//13 42//13
f 23//22 32//13 15//13
f 23//22 52//13 32//13
f 23//22 43//13 52//13
f 54//48 44//41 66//53
f 66//54 44//42 54//49
f 45//13 28//25 55//13
f 12//13 55//13 67//13
f 58//15 37//32 56//15
f 55//13 28//25 57//55
f 46//43 68//56 57//43
f 69//15 46//43 58//15
f 70//57 59//50 47//44
f 59//51 61//51 38//36
f 47//46 60//46 70//58
f 39//34 49//36 60//46
f 49//36 61//51 60//46
f 62//52 48//45 50//47
f 71//59 62//52 23//38
f 63//13 12//13 72//13
f 63//13 34//13 51//13
f 64//13 51//13 73//13
f 23//22 42//13 64//13
f 54//48 66//53 75//60
f 75//61 66//54 54//49
f 55//13 57//55 67//13
f 12//13 67//13 76//13
f 77//56 57//43 68//56
f 68//56 46//43 62//52
f 62//52 46//43 69//15
f 70//57 78//62 59//50
f 61//51 59//51 79//63
f 80//58 70//58 60//46
f 60//46 61//51 80//58
f 71//59 81//64 62//52
f 23//22 12//13 71//65
f 72//13 12//13 82//13
f 72//13 83//13 63//13
f 23//22 34//13 63//13
f 23//22 51//13 34//13
f 23//22 73//13 51//13
f 23//22 64//13 73//13
f 23//22 74//13 65//13
f 74//13 12//13 65//13
f 75//60 66//53 84//66
f 84//67 66//54 75//61
f 67//13 57//55 76//13
f 12//13 76//13 86//13
f 86//13 57//55 77//68
f 68//56 87//69 77//56
f 88//64 68//56 62//52
f 78//62 70//57 89//70
f 78//63 79//63 59//51
f 61//51 79//63 80//58
f 70//58 80//58 89//71
f 88//64 62//52 81//64
f 71//65 77//68 81//72
f 23//22 90//13 12//13
f 12//13 77//68 71//65
f 82//13 12//13 74//13
f 82//13 53//13 72//13
f 83//13 72//13 91//13
f 23//22 63//13 83//13
f 23//22 93//13 74//13
f 23//22 65//13 94//13
f 65//13 12//13 92//13
f 75//60 84//66 85//73
f 85//74 84//67 75//61
f 76//13 57//55 86//13
f 12//13 86//13 97//13
f 86//13 77//68 97//13
f 98//69 77//56 87//69
f 87//69 68//56 88//64
f 89//71 99//71 78//63
f 79//63 78//63 99//71
f 99//71 80//58 79//63
f 99//71 89//71 80//58
f 88//64 81//64 100//75
f 81//72 77//68 98//76
f 23//22 101//13 90//13
f 12//13 90//13 101//13
f 101//15 90//15 12//15
f 97//13 77//68 12//13
f 74//13 93//13 82//13
f 23//22 53//13 82//13
f 23//22 72//13 53//13
f 23//22 91//13 72//13
f 23//22 83//13 91//13
f 92//13 94//13 65//13
f 65//15 94//15 92//15
f 23//22 82//13 93//13
f 23//22 94//13 92//13
f 92//13 12//13 103//13
f 85//73 84//66 102//77
f 102//78 84//67 85//74
f 85//73 102//77 95//79
f 95//80 102//78 85//74
f 98//69 87//69 106//81
f 100//75 87//69 88//64
f 107//75 100//75 81//64
f 81//72 98//76 107//82
f 23//22 108//13 101//13
f 110//13 12//13 101//13
f 23//22 92//13 111//13
f 103//13 12//13 112//13
f 103//13 111//13 92//13
f 92//15 111//15 103//15
f 95//79 102//77 113//83
f 113//84 102//78 95//80
f 95//79 113//83 96//85
f 96//86 113//84 95//80
f 96//85 114//87 104//88
f 104//89 114//90 96//86
f 115//81 106//81 87//69
f 107//82 98//76 106//91
f 115//81 87//69 100//75
f 100//75 107//75 116//92
f 23//22 110//13 108//13
f 101//13 108//13 110//13
f 110//15 108//15 101//15
f 112//13 12//13 110//13
f 23//22 111//13 103//13
f 112//13 117//13 103//13
f 103//15 117//15 112//15
f 96//85 113//83 114//87
f 114//90 113//84 96//86
f 104//88 114//87 109//93
f 109//94 114//90 104//89
f 104//88 109//93 105//95
f 105//96 109//94 104//89
f 106//81 115//81 118//97
f 107//82 106//91 119//98
f 116//92 115//81 100//75
f 119//92 116//92 107//75
f 23//22 120//13 110//13
f 110//13 120//13 112//13
f 112//15 120//15 110//15
f 23//22 103//13 117//13
f 23//22 117//13 112//13
f 121//97 118//97 115//81
f 119//98 106//91 118//99
f 121//97 115//81 116//92
f 116//92 119//92 122//100
f 23//22 112//13 120//13
f 118//97 121//97 123//100
f 119//98 118//99 123//101
f 122//100 121//97 116//92
f 123//100 122//100 119//92
f 122//100 123//100 121//97
usemtl material_1_0
f 2//2 5//102 3//3
f 3//5 5//103 2//6
f 3//3 6//104 1//1
f 1//7 6//105 3//5
f 4//4 8//106 2//2
f 2//6 8//107 4//8
f 5//102 2//2 8//106
f 8//107 2//6 5//103
f 6//104 3//3 5//102
f 5//103 3//5 6//105
f 9//108 1//1 6//104
f 6//105 1//7 9//109
f 1//1 9//108 7//9
f 7//10 9//109 1//7
f 8//106 4//4 11//110
f 11//111 4//8 8//107
f 5//15 12//15 8//15
f 8//15 13//28 5//15
f 5//15 6//15 12//15
f 15//112 7//9 9//108
f 9//109 7//10 15//113
f 10//11 11//110 4//4
f 4//8 11//111 10//12
f 11//15 8//15 12//15
f 11//15 13//28 8//15
f 5//15 13//28 17//35
f 5//15 17//35 14//15
f 19//15 12//15 6//15
f 7//9 15//112 16//16
f 16//17 15//113 7//10
f 11//110 10//11 21//114
f 21//115 10//12 11//111
f 21//15 11//15 12//15
f 21//15 13//28 11//15
f 13//28 22//27 17//35
f 6//15 18//15 23//38
f 18//15 14//15 23//38
f 14//15 17//35 23//38
f 24//15 12//15 19//15
f 6//15 25//15 19//15
f 15//112 26//23 16//16
f 16//17 26//24 15//113
f 27//116 10//11 20//19
f 20//20 10//12 27//117
f 10//11 27//116 21//114
f 21//115 27//117 10//12
f 27//15 21//15 12//15
f 28//32 13//28 21//15
f 17//35 22//27 29//34
f 13//14 30//21 22//21
f 25//15 6//15 23//38
f 31//37 23//38 17//35
f 32//15 12//15 24//15
f 19//15 9//15 24//15
f 33//15 19//15 25//15
f 26//23 15//112 34//118
f 34//119 15//113 26//24
f 20//19 36//120 27//116
f 27//117 36//121 20//20
f 27//15 28//32 21//15
f 36//15 27//15 12//15
f 37//25 13//14 28//25
f 22//27 38//36 29//34
f 39//26 17//18 29//26
f 30//21 13//14 40//14
f 30//21 38//33 22//21
f 33//15 25//15 23//38
f 41//40 23//22 31//29
f 42//15 12//15 32//15
f 24//15 43//15 32//15
f 24//15 9//15 23//38
f 9//15 19//15 23//38
f 19//15 33//15 23//38
f 34//118 44//41 26//23
f 26//24 44//42 34//119
f 36//120 20//19 35//30
f 35//31 20//20 36//121
f 36//15 28//32 27//15
f 45//15 36//15 12//15
f 13//14 37//25 40//14
f 28//25 46//55 37//25
f 29//34 38//36 47//46
f 17//18 39//26 48//122
f 47//44 39//26 29//26
f 48//122 30//21 40//14
f 38//33 30//21 49//33
f 23//22 41//40 50//123
f 41//40 17//18 48//122
f 51//15 12//15 42//15
f 32//15 15//15 42//15
f 52//15 32//15 43//15
f 43//15 24//15 23//38
f 44//41 34//118 53//106
f 53//107 34//119 44//42
f 35//30 45//124 36//120
f 36//121 45//125 35//31
f 45//15 28//32 36//15
f 55//15 45//15 12//15
f 56//13 40//14 37//25
f 46//55 28//25 57//55
f 58//13 37//25 46//55
f 38//36 59//51 47//46
f 39//26 30//21 48//122
f 39//26 47//44 60//44
f 48//122 40//14 56//13
f 39//26 49//33 30//21
f 61//50 38//33 49//33
f 48//122 50//123 41//40
f 62//126 23//22 50//123
f 63//15 12//15 51//15
f 42//15 64//15 51//15
f 42//15 15//15 23//38
f 15//15 32//15 23//38
f 32//15 52//15 23//38
f 52//15 43//15 23//38
f 44//41 65//103 53//106
f 53//107 65//102 44//42
f 45//124 35//30 54//48
f 54//49 35//31 45//125
f 55//15 28//32 45//15
f 54//48 55//127 45//124
f 45//125 55//128 54//49
f 67//15 55//15 12//15
f 56//13 37//25 58//13
f 57//43 28//32 55//15
f 57//55 68//68 46//55
f 58//13 46//55 69//13
f 47//46 59//51 70//58
f 38//33 61//50 59//50
f 70//57 60//44 47//44
f 60//44 49//33 39//26
f 60//44 61//50 49//33
f 50//123 48//122 62//126
f 23//22 62//126 71//65
f 72//15 12//15 63//15
f 51//15 34//15 63//15
f 73//15 51//15 64//15
f 64//15 42//15 23//38
f 65//103 44//41 66//53
f 66//54 44//42 65//102
f 53//106 65//103 74//129
f 74//130 65//102 53//107
f 55//127 54//48 75//60
f 75//61 54//49 55//128
f 75//60 67//119 55//127
f 55//128 67//118 75//61
f 67//15 57//43 55//15
f 76//15 67//15 12//15
f 68//68 57//55 77//68
f 62//126 46//55 68//68
f 69//13 46//55 62//126
f 59//51 78//63 70//58
f 79//62 59//50 61//50
f 60//44 70//57 80//57
f 80//57 61//50 60//44
f 62//126 81//72 71//65
f 71//59 12//15 23//38
f 82//15 12//15 72//15
f 63//15 83//15 72//15
f 63//15 34//15 23//38
f 34//15 51//15 23//38
f 51//15 73//15 23//38
f 73//15 64//15 23//38
f 65//103 84//66 66//53
f 66//54 84//67 65//102
f 65//15 74//15 23//38
f 65//15 12//15 74//15
f 67//119 75//60 85//73
f 85//74 75//61 67//118
f 76//15 57//43 67//15
f 85//73 76//113 67//119
f 67//118 76//112 85//74
f 86//15 76//15 12//15
f 77//56 57//43 86//15
f 77//68 87//76 68//68
f 62//126 68//68 88//72
f 89//71 70//58 78//63
f 59//50 79//62 78//62
f 80//57 79//62 61//50
f 89//70 80//57 70//57
f 81//72 62//126 88//72
f 81//64 77//56 71//59
f 12//15 90//15 23//38
f 71//59 77//56 12//15
f 74//15 12//15 82//15
f 72//15 53//15 82//15
f 91//15 72//15 83//15
f 83//15 63//15 23//38
f 84//66 65//103 92//121
f 92//120 65//102 84//67
f 74//15 93//15 23//38
f 94//15 65//15 23//38
f 92//15 12//15 65//15
f 86//15 57//43 76//15
f 76//113 85//73 95//79
f 95//80 85//74 76//112
f 76//113 96//85 86//109
f 86//108 96//86 76//112
f 97//15 86//15 12//15
f 97//15 77//56 86//15
f 87//76 77//68 98//76
f 88//72 68//68 87//76
f 78//62 99//70 89//70
f 99//70 78//62 79//62
f 79//62 80//57 99//70
f 80//57 89//70 99//70
f 100//82 81//72 88//72
f 98//69 77//56 81//64
f 90//15 101//15 23//38
f 12//15 77//56 97//15
f 82//15 93//15 74//15
f 82//15 53//15 23//38
f 53//15 72//15 23//38
f 72//15 91//15 23//38
f 91//15 83//15 23//38
f 92//121 102//77 84//66
f 84//67 102//78 92//120
f 93//15 82//15 23//38
f 92//15 94//15 23//38
f 103//15 12//15 92//15
f 96//85 76//113 95//79
f 95//80 76//112 96//86
f 104//88 86//109 96//85
f 96//86 86//108 104//89
f 86//109 104//88 97//105
f 97//104 104//89 86//108
f 97//105 105//95 12//103
f 12//102 105//96 97//104
f 106//91 87//76 98//76
f 88//72 87//76 100//82
f 81//72 100//82 107//82
f 107//75 98//69 81//64
f 101//15 108//15 23//38
f 12//103 109//93 101//107
f 101//106 109//94 12//102
f 101//15 12//15 110//15
f 102//77 92//121 103//117
f 103//116 92//120 102//78
f 111//15 92//15 23//38
f 112//15 12//15 103//15
f 105//95 97//105 104//88
f 104//89 97//104 105//96
f 109//93 12//103 105//95
f 105//96 12//102 109//94
f 87//76 106//91 115//91
f 106//81 98//69 107//75
f 100//82 87//76 115//91
f 116//98 107//82 100//82
f 108//15 110//15 23//38
f 114//87 101//107 109//93
f 109//94 101//106 114//90
f 110//15 12//15 112//15
f 101//107 114//87 110//111
f 110//110 114//90 101//106
f 103//117 113//83 102//77
f 102//78 113//84 103//116
f 103//15 111//15 23//38
f 113//83 103//117 112//115
f 112//114 103//116 113//84
f 118//99 115//91 106//91
f 119//92 106//81 107//75
f 100//82 115//91 116//98
f 107//82 116//98 119//98
f 110//15 120//15 23//38
f 110//111 113//83 112//115
f 112//114 113//84 110//110
f 113//83 110//111 114//87
f 114//90 110//110 113//84
f 117//15 103//15 23//38
f 112//15 117//15 23//38
f 115//91 118//99 121//99
f 118//97 106//81 119//92
f 116//98 115//91 121//99
f 122//101 119//98 116//98
f 120//15 112//15 23//38
f 123//101 121//99 118//99
f 123//100 118//97 119//92
f 116//98 121//99 122//101
f 119//98 122//101 123//101
f 121//99 123//101 122//101
