# SSTK version 0.8.0
# 13
mtllib original-13.mtl
o #ID71
v 0.013578 0.929303 0.049447
v 0.013123 0.932494 0.049445
v 0.013558 0.935093 0.049447
v 0.011939 0.926827 0.049439
v 0.012158 0.930043 0.049440
v 0.010703 0.927846 0.049432
v 0.009821 0.924746 0.049428
v 0.008824 0.925999 0.049422
v 0.007317 0.923150 0.049414
v 0.006602 0.924584 0.049411
v 0.004536 0.922110 0.049400
v 0.004135 0.923661 0.049398
v 0.001599 0.921671 0.049385
v 0.001529 0.923271 0.049384
v -0.001365 0.921853 0.049369
v -0.001101 0.923432 0.049370
v -0.003640 0.924136 0.049357
v -0.004227 0.922646 0.049354
v -0.005977 0.925353 0.049345
v -0.006860 0.924017 0.049340
v -0.008009 0.927029 0.049334
v -0.009152 0.925906 0.049328
v -0.009650 0.929091 0.049326
v -0.011000 0.928230 0.049319
v -0.010825 0.931448 0.049320
v -0.011485 0.933999 0.049316
v -0.012325 0.930888 0.049312
v -0.011600 0.936631 0.049315
v -0.011620 0.942421 0.049315
v -0.012708 0.939658 0.049310
v -0.013069 0.933762 0.049308
v -0.013198 0.936729 0.049307
v 0.014667 0.932066 0.049453
v 0.015027 0.937961 0.049455
v 0.015157 0.934995 0.049456
v 0.014284 0.940836 0.049451
v 0.013443 0.937725 0.049447
v 0.012959 0.943494 0.049444
v 0.012783 0.940275 0.049443
v 0.011110 0.945818 0.049434
v 0.011608 0.942633 0.049437
v 0.009968 0.944695 0.049428
v 0.008819 0.947707 0.049422
v 0.007935 0.946371 0.049418
v 0.006185 0.949078 0.049409
v 0.005598 0.947588 0.049405
v 0.003324 0.949871 0.049394
v 0.003059 0.948292 0.049392
v 0.000360 0.950053 0.049378
v 0.000429 0.948452 0.049378
v -0.002176 0.948063 0.049365
v -0.002577 0.949614 0.049363
v -0.004644 0.947140 0.049352
v -0.005359 0.948574 0.049348
v -0.006866 0.945725 0.049340
v -0.007863 0.946978 0.049335
v -0.008745 0.943878 0.049330
v -0.009981 0.944897 0.049324
v -0.010199 0.941681 0.049323
v -0.011165 0.939230 0.049318
v -0.011600 0.936631 0.049315
v -0.011165 0.939230 0.049318
v -0.011620 0.942421 0.049315
v -0.010199 0.941681 0.049323
v -0.009981 0.944897 0.049324
v -0.008745 0.943878 0.049330
v -0.007863 0.946978 0.049335
v -0.006866 0.945725 0.049340
v -0.005359 0.948574 0.049348
v -0.004644 0.947140 0.049352
v -0.002577 0.949614 0.049363
v -0.002176 0.948063 0.049365
v 0.000360 0.950053 0.049378
v 0.000429 0.948452 0.049378
v 0.003059 0.948292 0.049392
v 0.003324 0.949871 0.049394
v 0.005598 0.947588 0.049405
v 0.006185 0.949078 0.049409
v 0.007935 0.946371 0.049418
v 0.008819 0.947707 0.049422
v 0.009968 0.944695 0.049428
v 0.011110 0.945818 0.049434
v 0.011608 0.942633 0.049437
v 0.012783 0.940275 0.049443
v 0.012959 0.943494 0.049444
v 0.013443 0.937725 0.049447
v 0.014284 0.940836 0.049451
v 0.013558 0.935093 0.049447
v 0.013578 0.929303 0.049447
v 0.014667 0.932066 0.049453
v 0.015027 0.937961 0.049455
v 0.015157 0.934995 0.049456
v -0.013198 0.936729 0.049307
v -0.013069 0.933762 0.049308
v -0.012708 0.939658 0.049310
v -0.012325 0.930888 0.049312
v -0.011485 0.933999 0.049316
v -0.011000 0.928230 0.049319
v -0.010825 0.931448 0.049320
v -0.009650 0.929091 0.049326
v -0.009152 0.925906 0.049328
v -0.008009 0.927029 0.049334
v -0.006860 0.924017 0.049340
v -0.005977 0.925353 0.049345
v -0.004227 0.922646 0.049354
v -0.003640 0.924136 0.049357
v -0.001365 0.921853 0.049369
v -0.001101 0.923432 0.049370
v 0.001529 0.923271 0.049384
v 0.001599 0.921671 0.049385
v 0.004135 0.923661 0.049398
v 0.004536 0.922110 0.049400
v 0.006602 0.924584 0.049411
v 0.007317 0.923150 0.049414
v 0.008824 0.925999 0.049422
v 0.009821 0.924746 0.049428
v 0.010703 0.927846 0.049432
v 0.011939 0.926827 0.049439
v 0.012158 0.930043 0.049440
v 0.013123 0.932494 0.049445
vn 0.005235994897330066 0 -0.9999862920847641
vn -0.005235994897330066 0 0.9999862920847641
usemtl material_0_0
f 1//1 2//1 3//1
f 2//1 1//1 4//1
f 2//1 4//1 5//1
f 5//1 4//1 6//1
f 6//1 4//1 7//1
f 6//1 7//1 8//1
f 8//1 7//1 9//1
f 8//1 9//1 10//1
f 10//1 9//1 11//1
f 10//1 11//1 12//1
f 12//1 11//1 13//1
f 12//1 13//1 14//1
f 14//1 13//1 15//1
f 14//1 15//1 16//1
f 16//1 15//1 17//1
f 17//1 15//1 18//1
f 17//1 18//1 19//1
f 19//1 18//1 20//1
f 19//1 20//1 21//1
f 21//1 20//1 22//1
f 21//1 22//1 23//1
f 23//1 22//1 24//1
f 23//1 24//1 25//1
f 25//1 24//1 26//1
f 26//1 24//1 27//1
f 26//1 27//1 28//1
f 28//1 27//1 29//1
f 29//1 27//1 30//1
f 30//1 27//1 31//1
f 30//1 31//1 32//1
f 33//1 34//1 35//1
f 34//1 33//1 36//1
f 36//1 33//1 1//1
f 36//1 1//1 3//1
f 36//1 3//1 37//1
f 36//1 37//1 38//1
f 38//1 37//1 39//1
f 38//1 39//1 40//1
f 40//1 39//1 41//1
f 40//1 41//1 42//1
f 40//1 42//1 43//1
f 43//1 42//1 44//1
f 43//1 44//1 45//1
f 45//1 44//1 46//1
f 45//1 46//1 47//1
f 47//1 46//1 48//1
f 47//1 48//1 49//1
f 49//1 48//1 50//1
f 49//1 50//1 51//1
f 49//1 51//1 52//1
f 52//1 51//1 53//1
f 52//1 53//1 54//1
f 54//1 53//1 55//1
f 54//1 55//1 56//1
f 56//1 55//1 57//1
f 56//1 57//1 58//1
f 58//1 57//1 59//1
f 58//1 59//1 29//1
f 29//1 59//1 60//1
f 29//1 60//1 28//1
f 61//2 62//2 63//2
f 62//2 64//2 63//2
f 63//2 64//2 65//2
f 64//2 66//2 65//2
f 65//2 66//2 67//2
f 66//2 68//2 67//2
f 67//2 68//2 69//2
f 68//2 70//2 69//2
f 69//2 70//2 71//2
f 70//2 72//2 71//2
f 71//2 72//2 73//2
f 72//2 74//2 73//2
f 74//2 75//2 73//2
f 73//2 75//2 76//2
f 75//2 77//2 76//2
f 76//2 77//2 78//2
f 77//2 79//2 78//2
f 78//2 79//2 80//2
f 79//2 81//2 80//2
f 80//2 81//2 82//2
f 81//2 83//2 82//2
f 83//2 84//2 82//2
f 82//2 84//2 85//2
f 84//2 86//2 85//2
f 85//2 86//2 87//2
f 86//2 88//2 87//2
f 88//2 89//2 87//2
f 89//2 90//2 87//2
f 87//2 90//2 91//2
f 92//2 91//2 90//2
f 93//2 94//2 95//2
f 94//2 96//2 95//2
f 95//2 96//2 63//2
f 63//2 96//2 61//2
f 61//2 96//2 97//2
f 96//2 98//2 97//2
f 97//2 98//2 99//2
f 99//2 98//2 100//2
f 98//2 101//2 100//2
f 100//2 101//2 102//2
f 101//2 103//2 102//2
f 102//2 103//2 104//2
f 103//2 105//2 104//2
f 104//2 105//2 106//2
f 105//2 107//2 106//2
f 106//2 107//2 108//2
f 108//2 107//2 109//2
f 107//2 110//2 109//2
f 109//2 110//2 111//2
f 110//2 112//2 111//2
f 111//2 112//2 113//2
f 112//2 114//2 113//2
f 113//2 114//2 115//2
f 114//2 116//2 115//2
f 115//2 116//2 117//2
f 116//2 118//2 117//2
f 117//2 118//2 119//2
f 119//2 118//2 120//2
f 118//2 89//2 120//2
f 88//2 120//2 89//2
