# SSTK version 0.8.0
# 14
mtllib original-14.mtl
o #ID77
v 0.013114 0.916060 0.414776
v 0.012761 0.910298 0.413463
v 0.013247 0.913160 0.414117
v 0.012367 0.918869 0.415411
v 0.011675 0.907598 0.412844
v 0.011649 0.913256 0.414130
v 0.011531 0.915828 0.414715
v 0.011039 0.921467 0.415995
v 0.010868 0.918321 0.415278
v 0.009188 0.923738 0.416502
v 0.009690 0.920626 0.415796
v 0.008047 0.922641 0.416246
v 0.006895 0.925584 0.416910
v 0.006012 0.924279 0.416608
v 0.004259 0.926924 0.417201
v 0.003674 0.925468 0.416866
v 0.001397 0.927700 0.417362
v 0.001134 0.926156 0.417009
v -0.001567 0.927877 0.417387
v -0.001496 0.926313 0.417031
v -0.004101 0.925932 0.416931
v -0.004504 0.927448 0.417274
v -0.006567 0.925031 0.416713
v -0.007284 0.926431 0.417028
v -0.008788 0.923647 0.416387
v -0.009786 0.924872 0.416660
v -0.010665 0.921842 0.415967
v -0.011902 0.922838 0.416186
v -0.012116 0.919695 0.415471
v -0.013538 0.920418 0.415627
v -0.013079 0.917299 0.414921
v -0.013511 0.914760 0.414341
v 0.011217 0.910716 0.413550
v 0.010039 0.905178 0.412284
v 0.010254 0.908321 0.413000
v 0.008802 0.906173 0.412504
v 0.007924 0.903144 0.411811
v 0.006925 0.904369 0.412084
v 0.005421 0.901584 0.411443
v 0.004705 0.902985 0.411758
v 0.002641 0.900568 0.411197
v 0.002238 0.902083 0.411540
v -0.000295 0.900139 0.411084
v -0.000367 0.901703 0.411440
v -0.003259 0.900316 0.411109
v -0.002997 0.901860 0.411462
v -0.005536 0.902548 0.411605
v -0.006122 0.901092 0.411270
v -0.007875 0.903737 0.411863
v -0.008757 0.902432 0.411561
v -0.009910 0.905375 0.412225
v -0.011051 0.904278 0.411969
v -0.011552 0.907390 0.412675
v -0.012902 0.906549 0.412476
v -0.012730 0.909694 0.413193
v -0.013393 0.912187 0.413756
v -0.014230 0.909146 0.413060
v -0.014623 0.917718 0.415008
v -0.014977 0.911956 0.413695
v -0.015110 0.914855 0.414354
v -0.015110 0.914855 0.414354
v -0.014623 0.917718 0.415008
v -0.014977 0.911956 0.413695
v -0.014230 0.909146 0.413060
v -0.013538 0.920418 0.415627
v -0.013511 0.914760 0.414341
v -0.013393 0.912187 0.413756
v -0.012902 0.906549 0.412476
v -0.012730 0.909694 0.413193
v -0.011552 0.907390 0.412675
v -0.011051 0.904278 0.411969
v -0.009910 0.905375 0.412225
v -0.008757 0.902432 0.411561
v -0.007875 0.903737 0.411863
v -0.006122 0.901092 0.411270
v -0.005536 0.902548 0.411605
v -0.003259 0.900316 0.411109
v -0.002997 0.901860 0.411462
v -0.000367 0.901703 0.411440
v -0.000295 0.900139 0.411084
v 0.002238 0.902083 0.411540
v 0.002641 0.900568 0.411197
v 0.004705 0.902985 0.411758
v 0.005421 0.901584 0.411443
v 0.006925 0.904369 0.412084
v 0.007924 0.903144 0.411811
v 0.008802 0.906173 0.412504
v 0.010039 0.905178 0.412284
v 0.010254 0.908321 0.413000
v 0.011217 0.910716 0.413550
v 0.011649 0.913256 0.414130
v 0.011675 0.907598 0.412844
v -0.013079 0.917299 0.414921
v -0.012116 0.919695 0.415471
v -0.011902 0.922838 0.416186
v -0.010665 0.921842 0.415967
v -0.009786 0.924872 0.416660
v -0.008788 0.923647 0.416387
v -0.007284 0.926431 0.417028
v -0.006567 0.925031 0.416713
v -0.004504 0.927448 0.417274
v -0.004101 0.925932 0.416931
v -0.001567 0.927877 0.417387
v -0.001496 0.926313 0.417031
v 0.001134 0.926156 0.417009
v 0.001397 0.927700 0.417362
v 0.003674 0.925468 0.416866
v 0.004259 0.926924 0.417201
v 0.006012 0.924279 0.416608
v 0.006895 0.925584 0.416910
v 0.008047 0.922641 0.416246
v 0.009188 0.923738 0.416502
v 0.009690 0.920626 0.415796
v 0.010868 0.918321 0.415278
v 0.011039 0.921467 0.415995
v 0.011531 0.915828 0.414715
v 0.012367 0.918869 0.415411
v 0.012761 0.910298 0.413463
v 0.013114 0.916060 0.414776
v 0.013247 0.913160 0.414117
vn -0.005105594237811104 -0.2217860973698855 0.9750819760004359
vn 0.005105594237811104 0.2217860973698855 -0.9750819760004359
usemtl material_0_0
f 1//1 2//1 3//1
f 2//1 1//1 4//1
f 2//1 4//1 5//1
f 5//1 4//1 6//1
f 6//1 4//1 7//1
f 7//1 4//1 8//1
f 7//1 8//1 9//1
f 9//1 8//1 10//1
f 9//1 10//1 11//1
f 11//1 10//1 12//1
f 12//1 10//1 13//1
f 12//1 13//1 14//1
f 14//1 13//1 15//1
f 14//1 15//1 16//1
f 16//1 15//1 17//1
f 16//1 17//1 18//1
f 18//1 17//1 19//1
f 18//1 19//1 20//1
f 20//1 19//1 21//1
f 21//1 19//1 22//1
f 21//1 22//1 23//1
f 23//1 22//1 24//1
f 23//1 24//1 25//1
f 25//1 24//1 26//1
f 25//1 26//1 27//1
f 27//1 26//1 28//1
f 27//1 28//1 29//1
f 29//1 28//1 30//1
f 29//1 30//1 31//1
f 31//1 30//1 32//1
f 5//1 33//1 34//1
f 33//1 5//1 6//1
f 34//1 33//1 35//1
f 34//1 35//1 36//1
f 34//1 36//1 37//1
f 37//1 36//1 38//1
f 37//1 38//1 39//1
f 39//1 38//1 40//1
f 39//1 40//1 41//1
f 41//1 40//1 42//1
f 41//1 42//1 43//1
f 43//1 42//1 44//1
f 43//1 44//1 45//1
f 45//1 44//1 46//1
f 45//1 46//1 47//1
f 45//1 47//1 48//1
f 48//1 47//1 49//1
f 48//1 49//1 50//1
f 50//1 49//1 51//1
f 50//1 51//1 52//1
f 52//1 51//1 53//1
f 52//1 53//1 54//1
f 54//1 53//1 55//1
f 54//1 55//1 56//1
f 54//1 56//1 57//1
f 57//1 56//1 32//1
f 57//1 32//1 30//1
f 57//1 30//1 58//1
f 57//1 58//1 59//1
f 59//1 58//1 60//1
f 61//2 62//2 63//2
f 63//2 62//2 64//2
f 62//2 65//2 64//2
f 65//2 66//2 64//2
f 66//2 67//2 64//2
f 64//2 67//2 68//2
f 67//2 69//2 68//2
f 69//2 70//2 68//2
f 68//2 70//2 71//2
f 70//2 72//2 71//2
f 71//2 72//2 73//2
f 72//2 74//2 73//2
f 73//2 74//2 75//2
f 74//2 76//2 75//2
f 75//2 76//2 77//2
f 76//2 78//2 77//2
f 78//2 79//2 77//2
f 77//2 79//2 80//2
f 79//2 81//2 80//2
f 80//2 81//2 82//2
f 81//2 83//2 82//2
f 82//2 83//2 84//2
f 83//2 85//2 84//2
f 84//2 85//2 86//2
f 85//2 87//2 86//2
f 86//2 87//2 88//2
f 87//2 89//2 88//2
f 89//2 90//2 88//2
f 91//2 92//2 90//2
f 88//2 90//2 92//2
f 66//2 65//2 93//2
f 93//2 65//2 94//2
f 65//2 95//2 94//2
f 94//2 95//2 96//2
f 95//2 97//2 96//2
f 96//2 97//2 98//2
f 97//2 99//2 98//2
f 98//2 99//2 100//2
f 99//2 101//2 100//2
f 100//2 101//2 102//2
f 101//2 103//2 102//2
f 102//2 103//2 104//2
f 104//2 103//2 105//2
f 103//2 106//2 105//2
f 105//2 106//2 107//2
f 106//2 108//2 107//2
f 107//2 108//2 109//2
f 108//2 110//2 109//2
f 109//2 110//2 111//2
f 110//2 112//2 111//2
f 111//2 112//2 113//2
f 113//2 112//2 114//2
f 112//2 115//2 114//2
f 114//2 115//2 116//2
f 115//2 117//2 116//2
f 116//2 117//2 91//2
f 91//2 117//2 92//2
f 92//2 117//2 118//2
f 117//2 119//2 118//2
f 120//2 118//2 119//2
