# SSTK version 0.8.0
# 8
mtllib original-8.mtl
o #ID46
v -0.021391 0.966415 0.064112
v 0.008519 0.966415 0.067414
v -0.006609 0.966415 0.067335
v 0.023334 0.966415 0.064347
v -0.035179 0.966415 0.057887
v 0.037186 0.966415 0.058266
v -0.047372 0.966415 0.048930
v 0.049472 0.966415 0.049437
v -0.057436 0.966415 0.037635
v 0.059654 0.966415 0.038248
v 0.067287 0.966415 0.025186
v -0.064931 0.966415 0.024493
v -0.069531 0.966415 0.010081
v 0.072037 0.966415 0.010822
v -0.071033 0.966415 -0.004973
v 0.073697 0.966415 -0.004215
v -0.069373 0.966415 -0.020010
v 0.072195 0.966415 -0.019269
v 0.067595 0.966415 -0.033682
v -0.064623 0.966415 -0.034374
v -0.056990 0.966415 -0.047436
v 0.060099 0.966415 -0.046823
v -0.046808 0.966415 -0.058626
v 0.050035 0.966415 -0.058118
v -0.034523 0.966415 -0.067454
v 0.037843 0.966415 -0.067075
v -0.020670 0.966415 -0.073535
v 0.024054 0.966415 -0.073301
v -0.005855 0.966415 -0.076603
v 0.009273 0.966415 -0.076523
v 0.009273 0.966415 -0.076523
v -0.005855 0.966415 -0.076603
v 0.024054 0.966415 -0.073301
v -0.020670 0.966415 -0.073535
v 0.037843 0.966415 -0.067075
v -0.034523 0.966415 -0.067454
v 0.050035 0.966415 -0.058118
v -0.046808 0.966415 -0.058626
v 0.060099 0.966415 -0.046823
v -0.056990 0.966415 -0.047436
v 0.067595 0.966415 -0.033682
v -0.064623 0.966415 -0.034374
v -0.069373 0.966415 -0.020010
v 0.072195 0.966415 -0.019269
v 0.073697 0.966415 -0.004215
v -0.071033 0.966415 -0.004973
v 0.072037 0.966415 0.010822
v -0.069531 0.966415 0.010081
v 0.067287 0.966415 0.025186
v -0.064931 0.966415 0.024493
v -0.057436 0.966415 0.037635
v 0.059654 0.966415 0.038248
v 0.049472 0.966415 0.049437
v -0.047372 0.966415 0.048930
v 0.037186 0.966415 0.058266
v -0.035179 0.966415 0.057887
v 0.023334 0.966415 0.064347
v -0.021391 0.966415 0.064112
v 0.008519 0.966415 0.067414
v -0.006609 0.966415 0.067335
v -0.034523 0.966415 -0.067454
v -0.020670 0.973673 -0.073535
v -0.020670 0.966415 -0.073535
v -0.034523 0.973673 -0.067454
v -0.034523 0.973673 -0.067454
v -0.034523 0.966415 -0.067454
v -0.020670 0.973673 -0.073535
v -0.020670 0.966415 -0.073535
v -0.005855 0.973673 -0.076603
v -0.005855 0.966415 -0.076603
v -0.005855 0.973673 -0.076603
v -0.005855 0.966415 -0.076603
v 0.009273 0.973673 -0.076523
v 0.009273 0.966415 -0.076523
v 0.009273 0.973673 -0.076523
v 0.009273 0.966415 -0.076523
v 0.024054 0.973673 -0.073301
v 0.024054 0.966415 -0.073301
v 0.024054 0.973673 -0.073301
v 0.024054 0.966415 -0.073301
v 0.037843 0.973673 -0.067075
v 0.037843 0.966415 -0.067075
v 0.037843 0.973673 -0.067075
v 0.037843 0.966415 -0.067075
v 0.050035 0.973673 -0.058118
v 0.050035 0.966415 -0.058118
v 0.050035 0.973673 -0.058118
v 0.050035 0.966415 -0.058118
v 0.060099 0.966415 -0.046823
v 0.060099 0.973673 -0.046823
v 0.060099 0.973673 -0.046823
v 0.060099 0.966415 -0.046823
v 0.067595 0.966415 -0.033682
v 0.067595 0.973673 -0.033682
v 0.067595 0.973673 -0.033682
v 0.067595 0.966415 -0.033682
v 0.072195 0.966415 -0.019269
v 0.072195 0.973673 -0.019269
v 0.072195 0.973673 -0.019269
v 0.072195 0.966415 -0.019269
v 0.073697 0.966415 -0.004215
v 0.073697 0.973673 -0.004215
v 0.073697 0.973673 -0.004215
v 0.073697 0.966415 -0.004215
v 0.072037 0.966415 0.010822
v 0.072037 0.973673 0.010822
v 0.072037 0.973673 0.010822
v 0.072037 0.966415 0.010822
v 0.067287 0.966415 0.025186
v 0.067287 0.973673 0.025186
v 0.067287 0.973673 0.025186
v 0.067287 0.966415 0.025186
v 0.059654 0.966415 0.038248
v 0.059654 0.973673 0.038248
v 0.059654 0.973673 0.038248
v 0.059654 0.966415 0.038248
v 0.049472 0.966415 0.049437
v 0.049472 0.973673 0.049437
v 0.049472 0.973673 0.049437
v 0.049472 0.966415 0.049437
v 0.037186 0.973673 0.058266
v 0.037186 0.966415 0.058266
v 0.037186 0.966415 0.058266
v 0.037186 0.973673 0.058266
v 0.023334 0.973673 0.064347
v 0.023334 0.966415 0.064347
v 0.023334 0.966415 0.064347
v 0.023334 0.973673 0.064347
v 0.008519 0.973673 0.067414
v 0.008519 0.966415 0.067414
v 0.008519 0.966415 0.067414
v 0.008519 0.973673 0.067414
v -0.006609 0.973673 0.067335
v -0.006609 0.966415 0.067335
v -0.006609 0.966415 0.067335
v -0.006609 0.973673 0.067335
v -0.021391 0.973673 0.064112
v -0.021391 0.966415 0.064112
v -0.021391 0.966415 0.064112
v -0.021391 0.973673 0.064112
v -0.035179 0.973673 0.057887
v -0.035179 0.966415 0.057887
v -0.035179 0.966415 0.057887
v -0.035179 0.973673 0.057887
v -0.047372 0.973673 0.048930
v -0.047372 0.966415 0.048930
v -0.047372 0.966415 0.048930
v -0.047372 0.973673 0.048930
v -0.057436 0.966415 0.037635
v -0.057436 0.973673 0.037635
v -0.057436 0.973673 0.037635
v -0.057436 0.966415 0.037635
v -0.064931 0.966415 0.024493
v -0.064931 0.973673 0.024493
v -0.064931 0.973673 0.024493
v -0.064931 0.966415 0.024493
v -0.069531 0.966415 0.010081
v -0.069531 0.973673 0.010081
v -0.069531 0.973673 0.010081
v -0.069531 0.966415 0.010081
v -0.071033 0.966415 -0.004973
v -0.071033 0.973673 -0.004973
v -0.071033 0.973673 -0.004973
v -0.071033 0.966415 -0.004973
v -0.069373 0.966415 -0.020010
v -0.069373 0.973673 -0.020010
v -0.069373 0.973673 -0.020010
v -0.069373 0.966415 -0.020010
v -0.064623 0.966415 -0.034374
v -0.064623 0.973673 -0.034374
v -0.064623 0.973673 -0.034374
v -0.064623 0.966415 -0.034374
v -0.056990 0.966415 -0.047436
v -0.056990 0.973673 -0.047436
v -0.056990 0.973673 -0.047436
v -0.056990 0.966415 -0.047436
v -0.046808 0.966415 -0.058626
v -0.046808 0.973673 -0.058626
v -0.046808 0.973673 -0.058626
v -0.046808 0.966415 -0.058626
vn 0 -1 0
vn 0 1 0
vn -0.49545864309090043 0 -0.8686315288927313
vn -0.30403304122344493 0 -0.9526614875413109
vn 0.49545864309090043 0 0.8686315288927313
vn 0.30403304122344493 0 0.9526614875413109
vn -0.09931975469970927 0 -0.9950555694665447
vn 0.09931975469970927 0 0.9950555694665447
vn 0.10973437779899876 0 -0.9939609480905509
vn -0.10973437779899876 0 0.9939609480905509
vn 0.3139924953225155 0 -0.9494254646264444
vn -0.3139924953225155 0 0.9494254646264444
vn 0.5045276522712392 0 -0.8633955339782987
vn -0.5045276522712392 0 0.8633955339782987
vn 0.6730125456012049 0 -0.7396310657776526
vn -0.6730125456012049 0 0.7396310657776526
vn 0.812083524427163 0 -0.5835412147860316
vn -0.812083524427163 0 0.5835412147860316
vn 0.9156626285687869 0 -0.40194769640153416
vn -0.9156626285687869 0 0.40194769640153416
vn 0.9792228150693219 0 -0.20278727388007553
vn -0.9792228150693219 0 0.20278727388007553
vn 0.9999862920847643 0 0.0052359948972719485
vn -0.9999862920847643 0 -0.0052359948972719485
vn 0.9770455658713494 0 0.21303042555263024
vn -0.9770455658713494 0 -0.21303042555263024
vn 0.9114032871347105 0 0.41151433535181287
vn -0.9114032871347105 0 -0.41151433535181287
vn 0.8059282429647961 0 0.5920132322775196
vn -0.8059282429647961 0 -0.5920132322775196
vn 0.6652303406592803 0 0.7466381947545532
vn -0.6652303406592803 0 -0.7466381947545532
usemtl material_0_0
f 1//1 2//1 3//1
f 2//1 1//1 4//1
f 4//1 1//1 5//1
f 4//1 5//1 6//1
f 6//1 5//1 7//1
f 6//1 7//1 8//1
f 8//1 7//1 9//1
f 8//1 9//1 10//1
f 10//1 9//1 11//1
f 11//1 9//1 12//1
f 11//1 12//1 13//1
f 11//1 13//1 14//1
f 14//1 13//1 15//1
f 14//1 15//1 16//1
f 16//1 15//1 17//1
f 16//1 17//1 18//1
f 18//1 17//1 19//1
f 19//1 17//1 20//1
f 19//1 20//1 21//1
f 19//1 21//1 22//1
f 22//1 21//1 23//1
f 22//1 23//1 24//1
f 24//1 23//1 25//1
f 24//1 25//1 26//1
f 26//1 25//1 27//1
f 26//1 27//1 28//1
f 28//1 27//1 29//1
f 28//1 29//1 30//1
f 31//2 32//2 33//2
f 32//2 34//2 33//2
f 33//2 34//2 35//2
f 34//2 36//2 35//2
f 35//2 36//2 37//2
f 36//2 38//2 37//2
f 37//2 38//2 39//2
f 38//2 40//2 39//2
f 39//2 40//2 41//2
f 40//2 42//2 41//2
f 42//2 43//2 41//2
f 41//2 43//2 44//2
f 44//2 43//2 45//2
f 43//2 46//2 45//2
f 45//2 46//2 47//2
f 46//2 48//2 47//2
f 47//2 48//2 49//2
f 48//2 50//2 49//2
f 50//2 51//2 49//2
f 49//2 51//2 52//2
f 52//2 51//2 53//2
f 51//2 54//2 53//2
f 53//2 54//2 55//2
f 54//2 56//2 55//2
f 55//2 56//2 57//2
f 56//2 58//2 57//2
f 57//2 58//2 59//2
f 60//2 59//2 58//2
f 61//3 62//4 63//4
f 62//4 61//3 64//3
f 65//5 66//5 67//6
f 68//6 67//6 66//5
f 63//4 69//7 70//7
f 69//7 63//4 62//4
f 67//6 68//6 71//8
f 72//8 71//8 68//6
f 70//7 73//9 74//9
f 73//9 70//7 69//7
f 71//8 72//8 75//10
f 76//10 75//10 72//8
f 74//9 77//11 78//11
f 77//11 74//9 73//9
f 75//10 76//10 79//12
f 80//12 79//12 76//10
f 78//11 81//13 82//13
f 81//13 78//11 77//11
f 79//12 80//12 83//14
f 84//14 83//14 80//12
f 82//13 85//15 86//15
f 85//15 82//13 81//13
f 83//14 84//14 87//16
f 88//16 87//16 84//14
f 85//15 89//17 86//15
f 89//17 85//15 90//17
f 91//18 87//16 92//18
f 88//16 92//18 87//16
f 90//17 93//19 89//17
f 93//19 90//17 94//19
f 95//20 91//18 96//20
f 92//18 96//20 91//18
f 94//19 97//21 93//19
f 97//21 94//19 98//21
f 99//22 95//20 100//22
f 96//20 100//22 95//20
f 98//21 101//23 97//21
f 101//23 98//21 102//23
f 103//24 99//22 104//24
f 100//22 104//24 99//22
f 102//23 105//25 101//23
f 105//25 102//23 106//25
f 107//26 103//24 108//26
f 104//24 108//26 103//24
f 106//25 109//27 105//25
f 109//27 106//25 110//27
f 111//28 107//26 112//28
f 108//26 112//28 107//26
f 110//27 113//29 109//27
f 113//29 110//27 114//29
f 115//30 111//28 116//30
f 112//28 116//30 111//28
f 114//29 117//31 113//29
f 117//31 114//29 118//31
f 119//32 115//30 120//32
f 116//30 120//32 115//30
f 121//5 117//31 118//31
f 117//31 121//5 122//5
f 123//3 124//3 120//32
f 119//32 120//32 124//3
f 125//6 122//5 121//5
f 122//5 125//6 126//6
f 127//4 128//4 123//3
f 124//3 123//3 128//4
f 129//8 126//6 125//6
f 126//6 129//8 130//8
f 131//7 132//7 127//4
f 128//4 127//4 132//7
f 133//10 130//8 129//8
f 130//8 133//10 134//10
f 135//9 136//9 131//7
f 132//7 131//7 136//9
f 137//12 134//10 133//10
f 134//10 137//12 138//12
f 139//11 140//11 135//9
f 136//9 135//9 140//11
f 141//14 138//12 137//12
f 138//12 141//14 142//14
f 143//13 144//13 139//11
f 140//11 139//11 144//13
f 145//16 142//14 141//14
f 142//14 145//16 146//16
f 147//15 148//15 143//13
f 144//13 143//13 148//15
f 145//16 149//18 146//16
f 149//18 145//16 150//18
f 151//17 148//15 152//17
f 147//15 152//17 148//15
f 150//18 153//20 149//18
f 153//20 150//18 154//20
f 155//19 151//17 156//19
f 152//17 156//19 151//17
f 154//20 157//22 153//20
f 157//22 154//20 158//22
f 159//21 155//19 160//21
f 156//19 160//21 155//19
f 158//22 161//24 157//22
f 161//24 158//22 162//24
f 163//23 159//21 164//23
f 160//21 164//23 159//21
f 162//24 165//26 161//24
f 165//26 162//24 166//26
f 167//25 163//23 168//25
f 164//23 168//25 163//23
f 166//26 169//28 165//26
f 169//28 166//26 170//28
f 171//27 167//25 172//27
f 168//25 172//27 167//25
f 170//28 173//30 169//28
f 173//30 170//28 174//30
f 175//29 171//27 176//29
f 172//27 176//29 171//27
f 174//30 177//32 173//30
f 177//32 174//30 178//32
f 179//31 175//29 180//31
f 176//29 180//31 175//29
f 177//32 64//3 61//3
f 64//3 177//32 178//32
f 179//31 180//31 65//5
f 66//5 65//5 180//31
