# SSTK version 0.8.0
# 3
mtllib original-3.mtl
o group_2/ID26#ID26
v 0.006148 0.717971 0.043656
v -0.013893 0.717971 0.041443
v -0.003989 0.717971 0.043602
v 0.016074 0.717971 0.041600
v 0.025356 0.717971 0.037525
v -0.023132 0.717971 0.037271
v 0.033589 0.717971 0.031610
v -0.031302 0.717971 0.031270
v 0.040411 0.717971 0.024112
v -0.038045 0.717971 0.023701
v 0.045525 0.717971 0.015360
v -0.043068 0.717971 0.014896
v 0.048708 0.717971 0.005736
v -0.046150 0.717971 0.005239
v -0.047157 0.717971 -0.004848
v 0.049821 0.717971 -0.004340
v 0.048814 0.717971 -0.014427
v -0.046044 0.717971 -0.014924
v 0.045732 0.717971 -0.024084
v -0.042861 0.717971 -0.024548
v 0.040709 0.717971 -0.032890
v -0.037747 0.717971 -0.033300
v 0.033966 0.717971 -0.040458
v -0.030925 0.717971 -0.040798
v 0.025796 0.717971 -0.046460
v -0.022693 0.717971 -0.046713
v 0.016557 0.717971 -0.050631
v -0.013410 0.717971 -0.050788
v 0.006653 0.717971 -0.052791
v -0.003484 0.717971 -0.052844
v -0.003484 0.717971 -0.052844
v 0.006653 0.717971 -0.052791
v -0.013410 0.717971 -0.050788
v 0.016557 0.717971 -0.050631
v -0.022693 0.717971 -0.046713
v 0.025796 0.717971 -0.046460
v -0.030925 0.717971 -0.040798
v 0.033966 0.717971 -0.040458
v -0.037747 0.717971 -0.033300
v 0.040709 0.717971 -0.032890
v -0.042861 0.717971 -0.024548
v 0.045732 0.717971 -0.024084
v -0.046044 0.717971 -0.014924
v 0.048814 0.717971 -0.014427
v -0.047157 0.717971 -0.004848
v 0.049821 0.717971 -0.004340
v 0.048708 0.717971 0.005736
v -0.046150 0.717971 0.005239
v -0.043068 0.717971 0.014896
v 0.045525 0.717971 0.015360
v -0.038045 0.717971 0.023701
v 0.040411 0.717971 0.024112
v -0.031302 0.717971 0.031270
v 0.033589 0.717971 0.031610
v -0.023132 0.717971 0.037271
v 0.025356 0.717971 0.037525
v -0.013893 0.717971 0.041443
v 0.016074 0.717971 0.041600
v 0.006148 0.717971 0.043656
v -0.003989 0.717971 0.043602
v -0.047157 0.717971 -0.004848
v -0.046044 0.635156 -0.014924
v -0.047157 0.635156 -0.004848
v -0.046044 0.717971 -0.014924
v -0.046044 0.717971 -0.014924
v -0.047157 0.717971 -0.004848
v -0.046044 0.635156 -0.014924
v -0.047157 0.635156 -0.004848
v -0.046150 0.717971 0.005239
v -0.046150 0.635156 0.005239
v -0.046150 0.717971 0.005239
v -0.046150 0.635156 0.005239
v -0.043068 0.717971 0.014896
v -0.043068 0.635156 0.014896
v -0.043068 0.717971 0.014896
v -0.043068 0.635156 0.014896
v -0.038045 0.717971 0.023701
v -0.038045 0.635156 0.023701
v -0.038045 0.717971 0.023701
v -0.038045 0.635156 0.023701
v -0.031302 0.717971 0.031270
v -0.031302 0.635156 0.031270
v -0.031302 0.717971 0.031270
v -0.031302 0.635156 0.031270
v -0.023132 0.635156 0.037271
v -0.023132 0.717971 0.037271
v -0.023132 0.635156 0.037271
v -0.023132 0.717971 0.037271
v -0.013893 0.635156 0.041443
v -0.013893 0.717971 0.041443
v -0.013893 0.635156 0.041443
v -0.013893 0.717971 0.041443
v -0.003989 0.635156 0.043602
v -0.003989 0.717971 0.043602
v -0.003989 0.635156 0.043602
v -0.003989 0.717971 0.043602
v 0.006148 0.635156 0.043656
v 0.006148 0.717971 0.043656
v 0.006148 0.635156 0.043656
v 0.006148 0.717971 0.043656
v 0.016074 0.635156 0.041600
v 0.016074 0.717971 0.041600
v 0.016074 0.635156 0.041600
v 0.016074 0.717971 0.041600
v 0.025356 0.635156 0.037525
v 0.025356 0.717971 0.037525
v 0.025356 0.635156 0.037525
v 0.025356 0.717971 0.037525
v 0.033589 0.635156 0.031610
v 0.033589 0.717971 0.031610
v 0.033589 0.635156 0.031610
v 0.033589 0.717971 0.031610
v 0.040411 0.717971 0.024112
v 0.040411 0.635156 0.024112
v 0.040411 0.717971 0.024112
v 0.040411 0.635156 0.024112
v 0.045525 0.717971 0.015360
v 0.045525 0.635156 0.015360
v 0.045525 0.717971 0.015360
v 0.045525 0.635156 0.015360
v 0.048708 0.717971 0.005736
v 0.048708 0.635156 0.005736
v 0.048708 0.717971 0.005736
v 0.048708 0.635156 0.005736
v 0.049821 0.717971 -0.004340
v 0.049821 0.635156 -0.004340
v 0.049821 0.717971 -0.004340
v 0.049821 0.635156 -0.004340
v 0.048814 0.717971 -0.014427
v 0.048814 0.635156 -0.014427
v 0.048814 0.717971 -0.014427
v 0.048814 0.635156 -0.014427
v 0.045732 0.717971 -0.024084
v 0.045732 0.635156 -0.024084
v 0.045732 0.717971 -0.024084
v 0.045732 0.635156 -0.024084
v 0.040709 0.717971 -0.032890
v 0.040709 0.635156 -0.032890
v 0.040709 0.717971 -0.032890
v 0.040709 0.635156 -0.032890
v 0.033966 0.717971 -0.040458
v 0.033966 0.635156 -0.040458
v 0.033966 0.717971 -0.040458
v 0.033966 0.635156 -0.040458
v 0.025796 0.635156 -0.046460
v 0.025796 0.717971 -0.046460
v 0.025796 0.717971 -0.046460
v 0.025796 0.635156 -0.046460
v 0.016557 0.635156 -0.050631
v 0.016557 0.717971 -0.050631
v 0.016557 0.717971 -0.050631
v 0.016557 0.635156 -0.050631
v 0.006653 0.635156 -0.052791
v 0.006653 0.717971 -0.052791
v 0.006653 0.717971 -0.052791
v 0.006653 0.635156 -0.052791
v -0.003484 0.635156 -0.052844
v -0.003484 0.717971 -0.052844
v -0.003484 0.717971 -0.052844
v -0.003484 0.635156 -0.052844
v -0.013410 0.635156 -0.050788
v -0.013410 0.717971 -0.050788
v -0.013410 0.717971 -0.050788
v -0.013410 0.635156 -0.050788
v -0.022693 0.635156 -0.046713
v -0.022693 0.717971 -0.046713
v -0.022693 0.717971 -0.046713
v -0.022693 0.635156 -0.046713
v -0.030925 0.635156 -0.040798
v -0.030925 0.717971 -0.040798
v -0.030925 0.717971 -0.040798
v -0.030925 0.635156 -0.040798
v -0.037747 0.717971 -0.033300
v -0.037747 0.635156 -0.033300
v -0.037747 0.717971 -0.033300
v -0.037747 0.635156 -0.033300
v -0.042861 0.717971 -0.024548
v -0.042861 0.635156 -0.024548
v -0.042861 0.717971 -0.024548
v -0.042861 0.635156 -0.024548
vn 0 1 0
vn -0.9999862920847643 0 -0.0052359948972719485
vn -0.9770455658713494 0 -0.21303042555263024
vn -0.9792228150693219 0 0.20278727388007553
vn -0.9156626285687869 0 0.40194769640153416
vn -0.812083524427163 0 0.5835412147860316
vn -0.6730125456012049 0 0.7396310657776526
vn -0.5045276522712392 0 0.8633955339782987
vn -0.3139924953225155 0 0.9494254646264444
vn -0.10973437779899876 0 0.9939609480905509
vn 0.09931975469970927 0 0.9950555694665447
vn 0.30403304122344493 0 0.9526614875413109
vn 0.49545864309090043 0 0.8686315288927313
vn 0.6652303406592803 0 0.7466381947545532
vn 0.8059282429647961 0 0.5920132322775196
vn 0.9114032871347105 0 0.41151433535181287
vn 0.9770455658713494 0 0.21303042555263024
vn 0.9999862920847643 0 0.0052359948972719485
vn 0.9792228150693219 0 -0.20278727388007553
vn 0.9156626285687869 0 -0.40194769640153416
vn 0.812083524427163 0 -0.5835412147860316
vn 0.6730125456012049 0 -0.7396310657776526
vn 0.5045276522712392 0 -0.8633955339782987
vn 0.3139924953225155 0 -0.9494254646264444
vn 0.10973437779899876 0 -0.9939609480905509
vn -0.09931975469970927 0 -0.9950555694665447
vn -0.30403304122344493 0 -0.9526614875413109
vn -0.49545864309090043 0 -0.8686315288927313
vn -0.6652303406592803 0 -0.7466381947545532
vn -0.8059282429647961 0 -0.5920132322775196
vn -0.9114032871347105 0 -0.41151433535181287
vn 0 -1 0
usemtl material_0_0
f 1//1 2//1 3//1
f 2//1 1//1 4//1
f 2//1 4//1 5//1
f 2//1 5//1 6//1
f 6//1 5//1 7//1
f 6//1 7//1 8//1
f 8//1 7//1 9//1
f 8//1 9//1 10//1
f 10//1 9//1 11//1
f 10//1 11//1 12//1
f 12//1 11//1 13//1
f 12//1 13//1 14//1
f 14//1 13//1 15//1
f 15//1 13//1 16//1
f 15//1 16//1 17//1
f 15//1 17//1 18//1
f 18//1 17//1 19//1
f 18//1 19//1 20//1
f 20//1 19//1 21//1
f 20//1 21//1 22//1
f 22//1 21//1 23//1
f 22//1 23//1 24//1
f 24//1 23//1 25//1
f 24//1 25//1 26//1
f 26//1 25//1 27//1
f 26//1 27//1 28//1
f 28//1 27//1 29//1
f 28//1 29//1 30//1
f 61//2 62//3 63//2
f 62//3 61//2 64//3
f 69//4 63//2 70//4
f 63//2 69//4 61//2
f 73//5 70//4 74//5
f 70//4 73//5 69//4
f 77//6 74//5 78//6
f 74//5 77//6 73//5
f 81//7 78//6 82//7
f 78//6 81//7 77//6
f 81//7 85//8 86//8
f 85//8 81//7 82//7
f 86//8 89//9 90//9
f 89//9 86//8 85//8
f 90//9 93//10 94//10
f 93//10 90//9 89//9
f 94//10 97//11 98//11
f 97//11 94//10 93//10
f 98//11 101//12 102//12
f 101//12 98//11 97//11
f 102//12 105//13 106//13
f 105//13 102//12 101//12
f 106//13 109//14 110//14
f 109//14 106//13 105//13
f 113//15 109//14 114//15
f 109//14 113//15 110//14
f 117//16 114//15 118//16
f 114//15 117//16 113//15
f 121//17 118//16 122//17
f 118//16 121//17 117//16
f 125//18 122//17 126//18
f 122//17 125//18 121//17
f 129//19 126//18 130//19
f 126//18 129//19 125//18
f 133//20 130//19 134//20
f 130//19 133//20 129//19
f 137//21 134//20 138//21
f 134//20 137//21 133//20
f 141//22 138//21 142//22
f 138//21 141//22 137//21
f 145//23 141//22 142//22
f 141//22 145//23 146//23
f 149//24 146//23 145//23
f 146//23 149//24 150//24
f 153//25 150//24 149//24
f 150//24 153//25 154//25
f 157//26 154//25 153//25
f 154//25 157//26 158//26
f 161//27 158//26 157//26
f 158//26 161//27 162//27
f 165//28 162//27 161//27
f 162//27 165//28 166//28
f 169//29 166//28 165//28
f 166//28 169//29 170//29
f 173//30 169//29 174//30
f 169//29 173//30 170//29
f 177//31 174//30 178//31
f 174//30 177//31 173//30
f 64//3 178//31 62//3
f 178//31 64//3 177//31
usemtl material_1_0
f 31//32 32//32 33//32
f 32//32 34//32 33//32
f 33//32 34//32 35//32
f 34//32 36//32 35//32
f 35//32 36//32 37//32
f 36//32 38//32 37//32
f 37//32 38//32 39//32
f 38//32 40//32 39//32
f 39//32 40//32 41//32
f 40//32 42//32 41//32
f 41//32 42//32 43//32
f 42//32 44//32 43//32
f 43//32 44//32 45//32
f 44//32 46//32 45//32
f 46//32 47//32 45//32
f 45//32 47//32 48//32
f 48//32 47//32 49//32
f 47//32 50//32 49//32
f 49//32 50//32 51//32
f 50//32 52//32 51//32
f 51//32 52//32 53//32
f 52//32 54//32 53//32
f 53//32 54//32 55//32
f 54//32 56//32 55//32
f 55//32 56//32 57//32
f 56//32 58//32 57//32
f 58//32 59//32 57//32
f 60//32 57//32 59//32
f 65//17 66//18 67//17
f 68//18 67//17 66//18
f 66//18 71//19 68//18
f 72//19 68//18 71//19
f 71//19 75//20 72//19
f 76//20 72//19 75//20
f 75//20 79//21 76//20
f 80//21 76//20 79//21
f 79//21 83//22 80//21
f 84//22 80//21 83//22
f 84//22 83//22 87//23
f 88//23 87//23 83//22
f 87//23 88//23 91//24
f 92//24 91//24 88//23
f 91//24 92//24 95//25
f 96//25 95//25 92//24
f 95//25 96//25 99//26
f 100//26 99//26 96//25
f 99//26 100//26 103//27
f 104//27 103//27 100//26
f 103//27 104//27 107//28
f 108//28 107//28 104//27
f 107//28 108//28 111//29
f 112//29 111//29 108//28
f 112//29 115//30 111//29
f 116//30 111//29 115//30
f 115//30 119//31 116//30
f 120//31 116//30 119//31
f 119//31 123//3 120//31
f 124//3 120//31 123//3
f 123//3 127//2 124//3
f 128//2 124//3 127//2
f 127//2 131//4 128//2
f 132//4 128//2 131//4
f 131//4 135//5 132//4
f 136//5 132//4 135//5
f 135//5 139//6 136//5
f 140//6 136//5 139//6
f 139//6 143//7 140//6
f 144//7 140//6 143//7
f 147//8 148//8 143//7
f 144//7 143//7 148//8
f 151//9 152//9 147//8
f 148//8 147//8 152//9
f 155//10 156//10 151//9
f 152//9 151//9 156//10
f 159//11 160//11 155//10
f 156//10 155//10 160//11
f 163//12 164//12 159//11
f 160//11 159//11 164//12
f 167//13 168//13 163//12
f 164//12 163//12 168//13
f 171//14 172//14 167//13
f 168//13 167//13 172//14
f 171//14 175//15 172//14
f 176//15 172//14 175//15
f 175//15 179//16 176//15
f 180//16 176//15 179//16
f 179//16 65//17 180//16
f 67//17 180//16 65//17
