# SSTK version 0.8.0
# 5
mtllib original-5.mtl
o #ID33
v -0.015106 0.409486 0.144297
v 0.046875 0.409486 0.138110
v 0.016210 0.409486 0.144461
v -0.045703 0.409486 0.137625
v -0.074244 0.409486 0.124739
v 0.075549 0.409486 0.125523
v -0.099482 0.409486 0.106199
v 0.100980 0.409486 0.107249
v -0.120314 0.409486 0.082818
v 0.122056 0.409486 0.084087
v -0.135830 0.409486 0.055616
v 0.137856 0.409486 0.057049
v -0.145351 0.409486 0.025783
v 0.147689 0.409486 0.027317
v -0.148461 0.409486 -0.005378
v 0.151125 0.409486 -0.003810
v -0.145025 0.409486 -0.036505
v 0.148015 0.409486 -0.034971
v -0.135192 0.409486 -0.066237
v 0.138494 0.409486 -0.064804
v -0.119392 0.409486 -0.093275
v 0.122978 0.409486 -0.092006
v -0.098316 0.409486 -0.116437
v 0.102146 0.409486 -0.115387
v -0.072885 0.409486 -0.134711
v 0.076908 0.409486 -0.133927
v -0.044211 0.409486 -0.147298
v 0.048367 0.409486 -0.146814
v -0.013546 0.409486 -0.153649
v 0.017770 0.409486 -0.153485
v 0.017770 0.409486 -0.153485
v -0.013546 0.409486 -0.153649
v 0.048367 0.409486 -0.146814
v -0.044211 0.409486 -0.147298
v 0.076908 0.409486 -0.133927
v -0.072885 0.409486 -0.134711
v 0.102146 0.409486 -0.115387
v -0.098316 0.409486 -0.116437
v 0.122978 0.409486 -0.092006
v -0.119392 0.409486 -0.093275
v 0.138494 0.409486 -0.064804
v -0.135192 0.409486 -0.066237
v 0.148015 0.409486 -0.034971
v -0.145025 0.409486 -0.036505
v 0.151125 0.409486 -0.003810
v -0.148461 0.409486 -0.005378
v 0.147689 0.409486 0.027317
v -0.145351 0.409486 0.025783
v 0.137856 0.409486 0.057049
v -0.135830 0.409486 0.055616
v 0.122056 0.409486 0.084087
v -0.120314 0.409486 0.082818
v 0.100980 0.409486 0.107249
v -0.099482 0.409486 0.106199
v 0.075549 0.409486 0.125523
v -0.074244 0.409486 0.124739
v 0.046875 0.409486 0.138110
v -0.045703 0.409486 0.137625
v -0.015106 0.409486 0.144297
v 0.016210 0.409486 0.144461
vn 0 -1 0
vn 0 1 0
usemtl material_0_0
f 1//1 2//1 3//1
f 2//1 1//1 4//1
f 2//1 4//1 5//1
f 2//1 5//1 6//1
f 6//1 5//1 7//1
f 6//1 7//1 8//1
f 8//1 7//1 9//1
f 8//1 9//1 10//1
f 10//1 9//1 11//1
f 10//1 11//1 12//1
f 12//1 11//1 13//1
f 12//1 13//1 14//1
f 14//1 13//1 15//1
f 14//1 15//1 16//1
f 16//1 15//1 17//1
f 16//1 17//1 18//1
f 18//1 17//1 19//1
f 18//1 19//1 20//1
f 20//1 19//1 21//1
f 20//1 21//1 22//1
f 22//1 21//1 23//1
f 22//1 23//1 24//1
f 24//1 23//1 25//1
f 24//1 25//1 26//1
f 26//1 25//1 27//1
f 26//1 27//1 28//1
f 28//1 27//1 29//1
f 28//1 29//1 30//1
f 31//2 32//2 33//2
f 32//2 34//2 33//2
f 33//2 34//2 35//2
f 34//2 36//2 35//2
f 35//2 36//2 37//2
f 36//2 38//2 37//2
f 37//2 38//2 39//2
f 38//2 40//2 39//2
f 39//2 40//2 41//2
f 40//2 42//2 41//2
f 41//2 42//2 43//2
f 42//2 44//2 43//2
f 43//2 44//2 45//2
f 44//2 46//2 45//2
f 45//2 46//2 47//2
f 46//2 48//2 47//2
f 47//2 48//2 49//2
f 48//2 50//2 49//2
f 49//2 50//2 51//2
f 50//2 52//2 51//2
f 51//2 52//2 53//2
f 52//2 54//2 53//2
f 53//2 54//2 55//2
f 54//2 56//2 55//2
f 55//2 56//2 57//2
f 56//2 58//2 57//2
f 58//2 59//2 57//2
f 60//2 57//2 59//2
